<svg xmlns="http://www.w3.org/2000/svg" viewBox="0 0 64 64" role="img" aria-label="Animate">
  <defs>
    <linearGradient id="bg" x1="8" y1="6" x2="56" y2="60" gradientUnits="userSpaceOnUse">
      <stop stop-color="#ff9db5"/>
      <stop offset="1" stop-color="#df4775"/>
    </linearGradient>
  </defs>
  <rect x="3" y="3" width="58" height="58" rx="17" fill="url(#bg)"/>
  <path d="M14 22c5-11 13-16 23-14 8 1 14 7 15 16-6-5-13-8-21-7-7 0-12 2-17 5Z" fill="#60351f"/>
  <circle cx="32" cy="32" r="20" fill="#ffd2ae"/>
  <path d="M13 27c3-12 11-19 23-19 8 0 14 5 17 13-8-4-16-5-23-2-7 2-12 5-17 8Z" fill="#704126"/>
  <circle cx="25" cy="31" r="2.6" fill="#3f2a22"/>
  <circle cx="40" cy="31" r="2.6" fill="#3f2a22"/>
  <path d="M25 41c5 4 10 4 15 0" fill="none" stroke="#b84d5e" stroke-width="2.6" stroke-linecap="round"/>
  <path d="M20 53 29 25h7l9 28h-7l-1.6-6H28.5L27 53Zm10-12h5l-2.5-9Z" fill="#fff" stroke="#fff" stroke-linejoin="round"/>
</svg>
